# xmcd CD database file generated by freedbAccess_ocx
#
# Track frame offsets:
#       150
#       17950
#       62865
#       88100
#       103715
#       159375
#       178080
#       190800
#       246280
#       247405
#       273490
#       292985
#
# Disc length: 4347 seconds
#
# Revision: 0
# Processed by: cddbd v1.4PL0 Copyright (c) Steve Scherf et al.
# Submitted via: CDnGo 2.00
#
DISCID=b210f90c
DTITLE=Hagelwätter Blues Band - Schlussbouquet
DYEAR=1990
DGENRE=Blues
TTITLE0=Unterwägs
TTITLE1=Heimweh-Bluus
TTITLE2=Dur wieviel Schtrasse
TTITLE3=Pfuus-Bluus '90
TTITLE4=Meck's Drums-Orgie
TTITLE5=Key to the highway
TTITLE6=Oh jeh minee
TTITLE7=Sultans of Swing
TTITLE8=Herr Doktor
TTITLE9=Tulsa Time
TTITLE10=Wätterfescht
TTITLE11=Rockin' all over the world
EXTD=
EXTT0=
EXTT1=
EXTT2=
EXTT3=
EXTT4=
EXTT5=
EXTT6=
EXTT7=
EXTT8=
EXTT9=
EXTT10=
EXTT11=
PLAYORDER=
